<?xml version="1.0" encoding="UTF-8" standalone="no"?>
<svg
   xmlns:dc="http://purl.org/dc/elements/1.1/"
   xmlns:cc="http://creativecommons.org/ns#"
   xmlns:rdf="http://www.w3.org/1999/02/22-rdf-syntax-ns#"
   xmlns:svg="http://www.w3.org/2000/svg"
   xmlns="http://www.w3.org/2000/svg"
   xmlns:sodipodi="http://sodipodi.sourceforge.net/DTD/sodipodi-0.dtd"
   xmlns:inkscape="http://www.inkscape.org/namespaces/inkscape"
   viewBox="0 0 576 512"
   version="1.1"
   id="svg4"
   sodipodi:docname="external-link-alt.svg"
   inkscape:version="0.92.1 r15371">
  <metadata
     id="metadata10">
    <rdf:RDF>
      <cc:Work
         rdf:about="">
        <dc:format>image/svg+xml</dc:format>
        <dc:type
           rdf:resource="http://purl.org/dc/dcmitype/StillImage" />
        <dc:title></dc:title>
      </cc:Work>
    </rdf:RDF>
  </metadata>
  <defs
     id="defs8" />
  <sodipodi:namedview
     pagecolor="#ffffff"
     bordercolor="#666666"
     borderopacity="1"
     objecttolerance="10"
     gridtolerance="10"
     guidetolerance="10"
     inkscape:pageopacity="0"
     inkscape:pageshadow="2"
     inkscape:window-width="1760"
     inkscape:window-height="1145"
     id="namedview6"
     showgrid="false"
     inkscape:zoom="0.921875"
     inkscape:cx="328.33008"
     inkscape:cy="338.18949"
     inkscape:window-x="757"
     inkscape:window-y="202"
     inkscape:window-maximized="0"
     inkscape:current-layer="svg4" />
  <path
     d="M448 241.823V464c0 26.51-21.49 48-48 48H48c-26.51 0-48-21.49-48-48V112c0-26.51 21.49-48 48-48h339.976c10.691 0 16.045 12.926 8.485 20.485l-24 24a12.002 12.002 0 0 1-8.485 3.515H54a6 6 0 0 0-6 6v340a6 6 0 0 0 6 6h340a6 6 0 0 0 6-6V265.823c0-3.183 1.264-6.235 3.515-8.485l24-24c7.559-7.56 20.485-2.206 20.485 8.485zM564 0H428.015c-10.658 0-16.039 12.93-8.485 20.485l48.187 48.201-272.202 272.202c-4.686 4.686-4.686 12.284 0 16.971l22.627 22.627c4.687 4.686 12.285 4.686 16.971 0l272.201-272.201 48.201 48.192c7.513 7.513 20.485 2.235 20.485-8.485V12c0-6.627-5.373-12-12-12z"
     id="path2"
     style="opacity:1;fill:#ffffff;fill-opacity:1" />
</svg>
